<?xml version="1.0" standalone="no"?>
<!DOCTYPE svg PUBLIC "-//W3C//DTD SVG 20010904//EN"
 "http://www.w3.org/TR/2001/REC-SVG-20010904/DTD/svg10.dtd">
<svg version="1.0" xmlns="http://www.w3.org/2000/svg"
 width="700.000000pt" height="700.000000pt" viewBox="0 0 700.000000 700.000000"
 preserveAspectRatio="xMidYMid meet">
<metadata>
Created by potrace 1.14, written by Peter Selinger 2001-2017
</metadata>
<g transform="translate(0.000000,700.000000) scale(0.100000,-0.100000)"
fill="#000000" stroke="none">
<path d="M2765 6562 c-2 -2 9 -25 25 -52 15 -26 42 -72 58 -101 16 -30 87
-152 156 -272 69 -120 126 -223 126 -228 0 -5 4 -9 9 -9 5 0 11 -6 13 -13 2
-10 204 -367 259 -457 5 -8 50 -87 100 -175 51 -88 124 -216 164 -285 40 -69
83 -145 97 -170 14 -25 154 -268 310 -540 157 -272 292 -508 302 -525 9 -16
21 -37 26 -45 8 -13 99 -171 171 -298 11 -18 88 -153 173 -300 84 -147 163
-284 175 -304 36 -65 57 -101 90 -156 17 -29 31 -57 31 -62 0 -6 5 -10 10 -10
6 0 10 -5 10 -10 0 -6 18 -40 40 -76 22 -36 40 -67 40 -69 0 -2 39 -70 86
-152 48 -81 96 -166 108 -188 12 -22 91 -159 175 -305 191 -330 189 -326 219
-380 14 -25 58 -101 97 -170 40 -69 82 -141 93 -160 197 -348 346 -599 351
-595 4 2 41 62 81 132 131 227 396 686 429 741 17 29 31 55 31 58 0 3 9 18 19
32 96 135 149 341 130 502 -14 118 -36 172 -171 405 -41 72 -86 150 -100 175
-68 120 -169 297 -178 310 -5 8 -18 31 -28 50 -11 19 -134 235 -274 480 -140
245 -266 465 -280 490 -14 25 -112 196 -218 380 -106 184 -203 353 -215 375
-12 22 -86 153 -165 290 -79 138 -151 264 -160 280 -10 17 -49 86 -89 154 -39
68 -71 125 -71 127 0 3 -17 33 -38 67 -22 34 -92 156 -158 272 -65 115 -124
219 -131 230 -7 11 -17 29 -22 40 -11 20 -35 62 -106 181 -109 182 -296 302
-519 331 -44 6 -1275 10 -1281 5z"/>
<path d="M2112 5453 c-38 -65 -83 -141 -98 -169 -30 -53 -51 -90 -149 -259
-32 -55 -69 -120 -83 -145 -13 -25 -28 -49 -32 -55 -6 -8 -170 -292 -269 -465
-14 -25 -62 -108 -106 -184 -44 -76 -89 -154 -101 -174 -11 -20 -89 -156 -174
-301 -84 -146 -160 -279 -170 -295 -10 -17 -41 -71 -70 -121 -29 -49 -62 -108
-75 -130 -12 -22 -57 -99 -100 -172 -42 -73 -74 -136 -72 -140 4 -6 3134 -10
3144 -4 0 1 -71 126 -159 279 -88 152 -170 293 -181 312 -10 19 -43 76 -72
125 -29 50 -63 108 -75 130 -12 22 -81 141 -153 265 -71 124 -139 241 -150
260 -11 19 -28 49 -38 65 -11 17 -22 37 -26 45 -4 8 -33 59 -65 113 -32 54
-58 101 -58 105 0 3 -6 13 -14 21 -7 9 -29 45 -48 81 -20 36 -57 100 -82 143
-25 43 -46 82 -46 87 0 6 -4 10 -10 10 -5 0 -10 4 -10 9 0 5 -39 76 -86 158
-47 81 -135 232 -194 336 l-108 187 -70 -117z"/>
<path d="M41 1818 c55 -103 634 -1094 651 -1115 125 -149 295 -242 477 -260
83 -8 3958 -9 3967 -1 3 4 -1 17 -10 30 -17 27 -477 823 -510 883 -12 22 -74
128 -136 235 -63 107 -120 207 -128 223 l-13 27 -2155 0 -2155 0 12 -22z"/>
</g>
</svg>
